HIERARCHY
ROOT SpineBase
{
  OFFSET 0.000000 0.000000 0.000000
  CHANNELS 6 Xposition Yposition Zposition Zrotation Xrotation Yrotation
  JOINT SpineMid
  {
    OFFSET 0.000000 29.608089 0.000000
    CHANNELS 3 Zrotation Xrotation Yrotation
    JOINT SpineShoulder
    {
      OFFSET 0.184933 22.000633 -0.787761
      CHANNELS 3 Zrotation Xrotation Yrotation
      JOINT Neck
      {
        OFFSET 0.104556 7.295946 -0.594141
        CHANNELS 3 Zrotation Xrotation Yrotation
        JOINT Head
        {
          OFFSET -3.511253 13.460788 -1.296735
          CHANNELS 3 Zrotation Xrotation Yrotation
          End Site
          {
            OFFSET 0 0 0
          }
        }
      }
      JOINT ShoulderLeft
      {
        OFFSET -16.343448 -4.408432 5.381458
        CHANNELS 3 Zrotation Xrotation Yrotation
        JOINT ElbowLeft
        {
          OFFSET -2.402991 -27.174231 2.769824
          CHANNELS 3 Zrotation Xrotation Yrotation
          JOINT WristLeft
          {
            OFFSET 0.277180 -21.303135 -5.456666
            CHANNELS 3 Zrotation Xrotation Yrotation
            JOINT HandLeft
            {
              OFFSET -0.721420 -2.681060 -0.329192
              CHANNELS 3 Zrotation Xrotation Yrotation
              JOINT HandTipLeft
              {
                OFFSET -0.200051 -6.436076 0.218305
                CHANNELS 3 Zrotation Xrotation Yrotation
                End Site
                {
                  OFFSET 0 0 0
                }
              }
              JOINT ThumbLeft
              {
                OFFSET -3.054161 -1.208317 -1.458572
                CHANNELS 3 Zrotation Xrotation Yrotation
                End Site
                {
                  OFFSET 0 0 0
                }
              }
            }
          }
        }
      }
      JOINT ShoulderRight
      {
        OFFSET 13.740955 -2.940955 -7.861821
        CHANNELS 3 Zrotation Xrotation Yrotation
        JOINT ElbowRight
        {
          OFFSET 5.992390 -24.927821 -0.872062
          CHANNELS 3 Zrotation Xrotation Yrotation
          JOINT WristRight
          {
            OFFSET -0.968478 -21.140166 -6.128684
            CHANNELS 3 Zrotation Xrotation Yrotation
            JOINT HandRight
            {
              OFFSET -2.646841 -6.192007 -0.036299
              CHANNELS 3 Zrotation Xrotation Yrotation
              JOINT HandTipRight
              {
                OFFSET -0.944023 -5.433882 -0.567292
                CHANNELS 3 Zrotation Xrotation Yrotation
                End Site
                {
                  OFFSET 0 0 0
                }
              }
              JOINT ThumbRight
              {
                OFFSET -2.884390 1.753373 -1.818770
                CHANNELS 3 Zrotation Xrotation Yrotation
                End Site
                {
                  OFFSET 0 0 0
                }
              }
            }
          }
        }
      }
    }
  }
  JOINT HipLeft
  {
    OFFSET -6.420037 0.663091 -0.978930
    CHANNELS 3 Zrotation Xrotation Yrotation
    JOINT KneeLeft
    {
      OFFSET 3.850937 -28.696705 5.024008
      CHANNELS 3 Zrotation Xrotation Yrotation
      JOINT AnkleLeft
      {
        OFFSET 6.263983 -32.762812 4.131017
        CHANNELS 3 Zrotation Xrotation Yrotation
        JOINT FootLeft
        {
          OFFSET -2.411360 -3.801797 -11.571984
          CHANNELS 3 Zrotation Xrotation Yrotation
          End Site
          {
            OFFSET 0 0 0
          }
        }
      }
    }
  }
  JOINT HipRight
  {
    OFFSET 6.944646 1.141406 -5.749066
    CHANNELS 3 Zrotation Xrotation Yrotation
    JOINT KneeRight
    {
      OFFSET 5.391425 -26.024032 2.899154
      CHANNELS 3 Zrotation Xrotation Yrotation
      JOINT AnkleRight
      {
        OFFSET 2.547753 -35.149225 6.401617
        CHANNELS 3 Zrotation Xrotation Yrotation
        JOINT FootRight
        {
          OFFSET -4.430007 -6.762164 -4.142087
          CHANNELS 3 Zrotation Xrotation Yrotation
          End Site
          {
            OFFSET 0 0 0
          }
        }
      }
    }
  }
}
MOTION
Frames: 13
Frame Time: 0.033333
-28.208685 69.002078 353.807474 -0.000000 0.000000 19.642548 -0.000000 0.000000 -19.642548 -0.000000 0.000000 0.000000 -0.000000 0.000000 0.000000 0.000000 0.000000 0.000000 -0.000000 0.000000 0.000000 -0.000000 0.000000 0.000000 -0.000000 0.000000 0.000000 -0.000000 0.000000 0.000000 0.000000 0.000000 0.000000 0.000000 0.000000 0.000000 -0.000000 0.000000 0.000000 -0.000000 0.000000 0.000000 -0.000000 0.000000 0.000000 -0.000000 0.000000 0.000000 0.000000 0.000000 0.000000 0.000000 0.000000 0.000000 -0.000000 0.000000 -19.642548 -0.000000 0.000000 0.000000 -0.000000 0.000000 0.000000 0.000000 0.000000 0.000000 -0.000000 0.000000 -19.642548 -0.000000 0.000000 0.000000 -0.000000 0.000000 0.000000 0.000000 0.000000 0.000000
-28.282041 68.989097 353.683251 -0.155203 0.153310 19.882489 0.093813 -0.196954 -19.882121 -0.000000 0.000000 0.000000 -0.000000 0.000000 0.000000 0.000000 0.000000 0.000000 -0.000000 0.000000 0.000000 -0.000000 0.000000 0.000000 5.520329 -0.221145 -0.616301 -5.210996 -0.668952 0.672242 0.000000 0.000000 0.000000 0.000000 0.000000 0.000000 -0.000000 0.000000 0.000000 -0.000000 0.000000 0.000000 -1.552931 1.163343 -0.469678 2.475459 -1.508692 0.491031 0.000000 0.000000 0.000000 0.000000 0.000000 0.000000 0.093813 -0.196954 -19.882121 -0.000000 0.000000 0.000000 2.538540 -5.624386 -4.819040 0.000000 0.000000 0.000000 0.093813 -0.196954 -19.882121 -0.000000 0.000000 0.000000 -0.000000 0.000000 0.000000 0.000000 0.000000 0.000000
-28.380352 68.973324 353.584848 -0.313408 0.277997 20.096886 0.198808 -0.368758 -20.095486 -0.000000 0.000000 0.000000 -0.000000 0.000000 0.000000 0.000000 0.000000 0.000000 0.496686 0.868621 -0.029986 -0.496288 -0.868848 0.022458 9.086474 -0.439561 -0.986344 -8.156200 -1.306964 1.132367 0.000000 0.000000 0.000000 0.000000 0.000000 0.000000 -0.000000 0.000000 0.000000 -0.000000 0.000000 0.000000 -2.654592 2.328933 -0.916922 4.281248 -2.733413 1.012368 0.000000 0.000000 0.000000 0.000000 0.000000 0.000000 0.198808 -0.368758 -20.095486 -1.002485 -0.581235 -0.242869 5.529905 -10.555840 -8.856970 0.000000 0.000000 0.000000 0.198808 -0.368758 -20.095486 -0.000000 0.000000 0.000000 -0.000000 0.000000 0.000000 0.000000 0.000000 0.000000
-28.503617 68.954759 353.512264 -0.474630 0.374116 20.285325 0.315503 -0.515455 -20.282356 -0.000000 0.000000 0.000000 -0.000000 0.000000 0.000000 0.000000 0.000000 0.000000 0.712811 1.193332 -0.040361 -1.777565 -1.461389 0.270404 12.588727 -0.450089 -1.531127 -9.621884 -1.734927 1.471479 0.000000 0.000000 0.000000 0.000000 0.000000 0.000000 -0.806106 0.225195 0.084056 0.194724 -0.913647 0.121735 -2.675101 4.187641 -1.528719 5.412068 -3.691529 1.531169 0.000000 0.000000 0.000000 0.000000 0.000000 0.000000 0.315503 -0.515455 -20.282356 -1.334779 -0.788256 -0.328647 7.205747 -15.142074 -12.085707 0.000000 0.000000 0.000000 0.315503 -0.515455 -20.282356 -0.000000 0.000000 0.000000 0.759107 -0.676637 -0.017364 0.000000 0.000000 0.000000
-28.651837 68.933402 353.465499 -0.638881 0.441714 20.447479 0.444345 -0.637053 -20.442546 -0.000000 0.000000 0.000000 -0.000000 0.000000 0.000000 0.000000 0.000000 0.000000 0.909638 1.449094 -0.047027 -2.248076 -1.811167 0.324487 14.587237 -0.605829 -1.756600 -10.054999 -1.787780 1.723043 0.000000 0.000000 0.000000 0.000000 0.000000 0.000000 -0.976780 0.322836 0.114754 0.168432 -1.075634 0.149511 -2.648134 5.407404 -2.029724 5.859601 -4.399642 2.018629 0.000000 0.000000 0.000000 0.000000 0.000000 0.000000 1.198967 -1.080331 -20.300899 -2.415074 -0.781457 -0.513425 8.200912 -18.563592 -14.123105 0.000000 0.000000 0.000000 0.444345 -0.637053 -20.442546 -0.000000 0.000000 0.000000 0.913730 -0.925883 0.054809 0.000000 0.000000 0.000000
-28.825011 68.909253 353.444554 -0.806175 0.480832 20.583100 0.585719 -0.733522 -20.575968 -0.000000 0.000000 0.000000 -0.000000 0.000000 0.000000 0.000000 0.000000 0.000000 1.088483 1.637835 -0.049564 -2.660168 -2.095834 0.364358 16.050884 -0.778974 -1.899795 -9.808204 -1.358816 1.883650 0.000000 0.000000 0.000000 0.000000 0.000000 0.000000 -1.096395 0.431676 0.146576 0.094454 -1.166130 0.171441 -2.148743 6.528499 -2.557819 5.612245 -4.871858 2.448794 0.000000 0.000000 0.000000 0.000000 0.000000 0.000000 1.657590 -1.226290 -20.363334 -2.831535 -0.938178 -0.612062 8.631188 -20.531044 -14.816093 0.000000 0.000000 0.000000 1.377402 -1.393835 -20.523408 -0.972861 0.340742 -0.034970 1.019369 -1.187078 0.165862 0.000000 0.000000 0.000000
-29.051859 68.870062 353.456849 -1.003150 0.483474 20.671484 0.767976 -0.806403 -20.661847 -0.000000 0.000000 0.000000 -0.000000 0.000000 0.000000 0.000000 0.000000 0.000000 1.247602 1.758242 -0.047586 -3.051744 -2.387083 0.398571 16.686312 -1.898798 -1.532971 -9.460306 -0.916907 1.732118 0.000000 0.000000 0.000000 0.000000 0.000000 0.000000 -1.180529 0.549803 0.179547 -0.000507 -1.095660 0.181580 -0.758140 7.713571 -3.263471 3.756611 -4.722062 2.771115 0.000000 0.000000 0.000000 0.000000 0.000000 0.000000 2.289028 -1.319509 -20.345770 -2.866229 -0.903601 -0.622756 7.204978 -17.397290 -10.745981 0.000000 0.000000 0.000000 1.850753 -1.527558 -20.559517 -1.266925 0.294761 -0.077018 1.373718 -1.420897 0.108111 0.000000 0.000000 0.000000
-29.283484 68.833585 353.493060 -1.174962 0.456558 20.692579 0.937940 -0.842189 -20.681004 -0.000000 0.000000 0.000000 0.976499 0.748166 0.282408 0.000000 0.000000 0.000000 1.263069 1.752095 -0.045631 -3.229846 -2.507866 0.428561 17.727485 -3.019901 -1.197566 -7.557173 1.812692 1.429676 0.000000 0.000000 0.000000 0.000000 0.000000 0.000000 -1.199782 0.687354 0.214901 -0.167035 -0.971881 0.188055 1.211763 9.182721 -4.206099 1.491446 -6.327141 3.439187 0.000000 0.000000 0.000000 0.000000 0.000000 0.000000 2.902643 -1.352400 -20.261857 -2.708660 -0.808110 -0.594359 4.888529 -13.440434 -5.170265 0.000000 0.000000 0.000000 2.306399 -1.589677 -20.525190 -1.070716 -0.483175 -0.087289 0.771136 -1.043431 0.357577 0.000000 0.000000 0.000000
-29.512206 68.803420 353.543909 -1.328577 0.409278 20.733444 0.488689 -0.200897 -20.758105 0.800624 -0.393931 0.034729 1.294247 1.130087 0.405902 0.000000 0.000000 0.000000 1.380844 1.673713 -0.027503 -2.937366 -3.016591 0.305375 18.330404 -4.931540 -0.289297 -9.862000 5.256707 0.882411 0.000000 0.000000 0.000000 0.000000 0.000000 0.000000 -1.023485 0.615908 0.189738 -0.159917 -0.600882 0.150374 3.286767 8.796778 -4.324407 -2.380286 -5.414852 3.043527 0.000000 0.000000 0.000000 0.000000 0.000000 0.000000 3.487718 -1.339502 -20.202068 -3.187074 -1.114825 -0.731548 5.308905 -14.723018 -5.486394 0.000000 0.000000 0.000000 2.719839 -1.641573 -20.519751 -1.100780 -0.495613 -0.082185 0.251471 -1.349413 0.679869 0.000000 0.000000 0.000000
-29.721261 68.784345 353.600546 -1.459842 0.349199 20.813388 0.538495 -0.155988 -20.841508 0.901294 -0.394152 0.038684 1.603405 1.597896 0.547683 0.000000 0.000000 0.000000 1.383151 1.499496 -0.009742 -2.726972 -3.423970 0.235609 17.194561 -3.047611 -0.858948 -10.416654 4.952885 1.039078 0.000000 0.000000 0.000000 0.000000 0.000000 0.000000 -0.799226 0.711848 0.204346 -0.260543 -0.533219 0.092360 4.666863 8.140676 -4.189775 -3.028129 -8.551688 3.415499 0.000000 0.000000 0.000000 0.000000 0.000000 0.000000 4.009598 -1.288565 -20.192584 -3.730202 -1.531792 -0.900062 6.689737 -18.761499 -7.884734 0.000000 0.000000 0.000000 3.104793 -1.669115 -20.555582 -1.112240 -0.488248 -0.073689 -0.086367 -1.684996 0.888074 0.000000 0.000000 0.000000
-29.896172 68.762029 353.643191 -1.545342 0.337853 20.921102 0.626597 -0.105940 -20.949359 0.337991 0.163158 -0.017443 2.390873 1.390700 0.745590 0.000000 0.000000 0.000000 2.088284 0.826554 0.082354 -3.323856 -3.304754 0.322673 14.286432 0.121594 -1.830182 -7.422838 0.928522 1.377538 0.000000 0.000000 0.000000 0.000000 0.000000 0.000000 -0.091212 0.354707 0.317731 -0.501199 -0.997452 0.066297 5.157435 8.514865 -4.367793 -2.055061 -7.737031 3.353867 0.000000 0.000000 0.000000 0.000000 0.000000 0.000000 4.378049 -1.296667 -20.231520 -4.451783 -2.087090 -1.125415 8.848806 -25.556842 -13.024753 0.000000 0.000000 0.000000 3.364475 -1.749935 -20.633431 -0.836666 -0.347265 -0.001821 -1.606586 -2.370556 1.789911 0.000000 0.000000 0.000000
-29.994261 68.761334 353.679211 -1.544660 0.361119 21.052091 0.710260 -0.058935 -21.077542 0.347069 0.195322 -0.014560 2.759593 1.436465 0.828137 0.000000 0.000000 0.000000 2.415218 -0.001415 0.196246 -5.115356 -1.494217 0.611070 10.617785 4.433605 -3.130171 -2.620371 -0.780863 1.961955 0.000000 0.000000 0.000000 0.000000 0.000000 0.000000 -0.263940 0.738935 0.443109 -0.187342 -1.679464 -0.118973 4.475856 7.842116 -3.885201 0.405414 -9.682090 3.674659 0.000000 0.000000 0.000000 0.000000 0.000000 0.000000 4.521956 -1.269482 -20.322578 -4.587815 -2.371465 -1.205703 9.069557 -26.643503 -13.716743 0.000000 0.000000 0.000000 3.467045 -1.821684 -20.745580 -1.114523 -0.368805 -0.045384 -0.438664 -2.117470 1.054911 0.000000 0.000000 0.000000
-30.457467 68.756866 353.811734 -2.140645 0.213474 21.118289 1.280462 -0.005148 -21.142935 0.437553 0.177189 -0.010627 3.607779 1.097754 0.851378 0.000000 0.000000 0.000000 2.180591 0.359597 0.128634 -6.696025 1.451379 1.244221 8.067034 5.624580 -3.903459 -3.157156 -3.097428 2.193442 0.000000 0.000000 0.000000 0.000000 0.000000 0.000000 -0.495642 1.372446 0.631284 -2.166980 -2.539949 0.244483 6.947121 8.006653 -4.607264 1.255127 -12.114961 4.289977 0.000000 0.000000 0.000000 0.000000 0.000000 0.000000 6.095563 -1.360511 -20.156298 -5.388694 -2.827387 -1.444430 8.544682 -23.961875 -12.728351 0.000000 0.000000 0.000000 4.823259 -2.045643 -20.670582 -1.907011 -0.506239 -0.164227 0.266184 -1.868488 0.495941 0.000000 0.000000 0.000000
